HIERARCHY
ROOT Hips
{
    OFFSET 0.000000 0.000000 0.000000
    CHANNELS 6 Xposition Yposition Zposition Zrotation Xrotation Yrotation
    JOINT Spine
    {
        OFFSET -0.000000 7.523850 0.000000
        CHANNELS 3 Zrotation Xrotation Yrotation
        JOINT Spine1
        {
            OFFSET -0.000000 21.784267 0.000000
            CHANNELS 3 Zrotation Xrotation Yrotation
            JOINT Neck
            {
                OFFSET -0.000000 21.694805 1.972255
                CHANNELS 3 Zrotation Xrotation Yrotation
                JOINT Head
                {
                    OFFSET -0.000000 12.845598 -1.835085
                    CHANNELS 3 Zrotation Xrotation Yrotation
                    End Site
                    {
                        OFFSET -0.000000 22.938568 0.000000
                    }
                }
            }
            JOINT LeftShoulder
            {
                OFFSET 3.657477 19.705200 -0.211895
                CHANNELS 3 Zrotation Xrotation Yrotation
                JOINT LeftArm
                {
                    OFFSET 11.195261 0.000000 0.000000
                    CHANNELS 3 Zrotation Xrotation Yrotation
                    JOINT LeftForeArm
                    {
                        OFFSET 29.660666 0.000000 0.000000
                        CHANNELS 3 Zrotation Xrotation Yrotation
                        JOINT LeftHand
                        {
                            OFFSET 23.347620 0.000000 0.000000
                            CHANNELS 3 Zrotation Xrotation Yrotation
                            End Site
                            {
                                OFFSET 13.763142 0.000000 0.000000
                            }
                        }
                    }
                }
            }
            JOINT RightShoulder
            {
                OFFSET -3.680529 19.705200 -0.211895
                CHANNELS 3 Zrotation Xrotation Yrotation
                JOINT RightArm
                {
                    OFFSET -11.195261 0.000000 0.000000
                    CHANNELS 3 Zrotation Xrotation Yrotation
                    JOINT RightForeArm
                    {
                        OFFSET -29.660666 0.000000 0.000000
                        CHANNELS 3 Zrotation Xrotation Yrotation
                        JOINT RightHand
                        {
                            OFFSET -23.347620 0.000000 0.000000
                            CHANNELS 3 Zrotation Xrotation Yrotation
                            End Site
                            {
                                OFFSET -13.763142 0.000000 0.000000
                            }
                        }
                    }
                }
            }
        }
    }
    JOINT LeftUpLeg
    {
        OFFSET 9.175427 0.000000 0.000000
        CHANNELS 3 Zrotation Xrotation Yrotation
        JOINT LeftLeg
        {
            OFFSET -0.000000 -39.121593 0.000000
            CHANNELS 3 Zrotation Xrotation Yrotation
            JOINT LeftFoot
            {
                OFFSET -0.000000 -35.356884 0.000000
                CHANNELS 3 Zrotation Xrotation Yrotation
                JOINT LeftToeBase
                {
                    OFFSET -0.000000 -5.964027 13.763142
                    CHANNELS 3 Zrotation Xrotation Yrotation
                    End Site
                    {
                        OFFSET -0.000000 0.000000 3.670171
                    }
                }
            }
        }
    }
    JOINT RightUpLeg
    {
        OFFSET -9.175427 0.000000 0.000000
        CHANNELS 3 Zrotation Xrotation Yrotation
        JOINT RightLeg
        {
            OFFSET -0.000000 -39.121593 0.000000
            CHANNELS 3 Zrotation Xrotation Yrotation
            JOINT RightFoot
            {
                OFFSET -0.000000 -35.356884 0.000000
                CHANNELS 3 Zrotation Xrotation Yrotation
                JOINT RightToeBase
                {
                    OFFSET -0.000000 -5.964027 13.763142
                    CHANNELS 3 Zrotation Xrotation Yrotation
                    End Site
                    {
                        OFFSET -0.000000 0.000000 3.670171
                    }
                }
            }
        }
    }
}
MOTION
Frames:    10
Frame Time:    0.004000
-18.254295    77.842468    -120.990250    0.451811    -1.532450    1.047853    1.996306    -3.161234    1.816027    -1.102140    6.008712    1.818782    -2.246140    11.747291    -5.412605    3.276973    -1.814022    -5.020694    -6.480770    19.464798    -3.034453    -56.086838    48.368225    -8.282643    9.195816    -13.887127    -26.067488    2.356729    -11.722301    4.219542    1.546417    17.627089    -0.217745    29.156191    45.043312    43.493980    -12.015566    -15.579122    25.838205    1.865540    -12.929184    -2.008568    2.838391    -21.688597    -1.633070    0.166097    3.626192    5.674887    -10.311612    2.372145    9.054728    0.000000    0.000000    0.000000    1.641913    7.790702    1.662248    2.486423    13.339776    7.142867    -1.097141    -15.096630    -17.040628    0.000000    0.000000    0.000000    
-18.220901    77.811226    -120.697449    0.404347    -1.457199    0.888162    1.957298    -3.323272    1.877984    -1.065141    6.103066    1.878019    -2.272782    11.785254    -5.440550    3.286451    -1.837433    -5.047318    -6.499087    19.446110    -3.114363    -56.137711    48.450001    -8.214754    9.269035    -13.909986    -26.026711    2.319119    -11.731570    4.313030    1.527709    17.644657    -0.292836    29.109655    44.999680    43.597000    -12.036764    -15.609526    25.892544    1.914548    -12.950217    -2.014701    2.783831    -21.656860    -1.449643    0.392896    3.067283    5.821012    -9.665476    2.684827    8.605722    0.000000    0.000000    0.000000    1.640602    7.892385    1.672748    2.475398    13.386662    7.193250    -1.239150    -15.025194    -16.895378    0.000000    0.000000    0.000000    
-18.202967    77.780853    -120.430084    0.313800    -1.500053    0.749022    2.014537    -3.198051    1.891045    -1.145929    5.994182    1.894781    -2.260947    11.787233    -5.419926    3.276865    -1.793453    -5.029125    -6.507148    19.450691    -3.050059    -56.106335    48.487038    -8.216123    9.238651    -13.911922    -25.990416    2.306105    -11.746006    4.208186    1.557739    17.758663    -0.354585    29.020617    44.890656    43.806126    -11.976369    -15.606198    25.980547    1.604535    -12.947328    -2.126792    2.966532    -21.838472    -1.508100    0.200905    3.275321    5.717780    -9.555815    2.525784    8.953105    0.000000    0.000000    0.000000    1.703122    8.082130    1.661820    2.457348    13.453274    7.240533    -1.171364    -15.079462    -16.830845    0.000000    0.000000    0.000000    
-18.171001    77.751633    -120.154449    0.249124    -1.468619    0.624414    1.921187    -3.231701    1.938830    -0.961349    5.963871    1.934713    -2.397654    11.791327    -5.435506    3.325576    -1.717505    -5.034193    -6.598868    19.499477    -3.127836    -56.107719    48.381783    -8.252407    9.235997    -13.842409    -25.888958    2.145781    -11.691900    4.144528    1.478958    17.636345    -0.397671    29.044701    45.033054    43.751423    -12.031578    -15.683890    25.992023    1.747112    -13.012430    -1.974656    3.021574    -21.919994    -1.486673    0.190192    3.136589    5.789656    -10.123051    2.611960    9.028915    0.000000    0.000000    0.000000    1.742606    8.261614    1.587955    2.388782    13.398345    7.249209    -1.190699    -15.100973    -16.640274    0.000000    0.000000    0.000000    
-18.159939    77.716423    -119.883499    0.146114    -1.411295    0.515611    1.925591    -3.287715    1.960795    -0.936671    5.967492    1.954348    -2.392191    11.810144    -5.440914    3.289665    -1.736585    -5.045564    -6.615344    19.472418    -3.162838    -56.139809    48.433979    -8.176591    9.268328    -13.863752    -25.903431    2.179275    -11.702969    4.186378    1.474200    17.512390    -0.347549    29.184578    45.087139    43.597141    -12.050774    -15.717089    26.066122    1.839173    -13.034786    -1.948824    3.010578    -21.968760    -1.265205    0.427897    2.838423    5.867472    -9.843089    2.966543    8.761759    0.000000    0.000000    0.000000    1.791629    8.275284    1.743164    2.482621    13.636198    7.249709    -1.308453    -15.113631    -16.565226    0.000000    0.000000    0.000000    
-18.126606    77.687912    -119.606445    0.068402    -1.365186    0.403848    1.978007    -3.324400    1.975380    -1.022911    5.944581    1.971078    -2.362146    11.834764    -5.430345    3.274030    -1.751704    -5.038384    -6.602310    19.451136    -3.144794    -56.132580    48.382851    -8.180115    9.183253    -13.822822    -25.869684    2.239131    -11.681573    4.190437    1.487457    17.785143    -0.504569    28.931326    44.899513    44.051125    -12.076654    -15.707563    26.050564    1.870140    -13.020970    -1.920209    3.177064    -22.206417    -1.449261    0.210198    3.105252    5.793169    -9.632068    2.735951    9.016487    0.000000    0.000000    0.000000    1.827780    8.390429    1.694488    2.459509    13.690628    7.259985    -1.174730    -15.172295    -16.463621    0.000000    0.000000    0.000000    
-18.091253    77.657814    -119.306778    0.007985    -1.322494    0.231797    1.981782    -3.419671    2.022821    -1.028002    5.985041    2.017372    -2.102814    11.693705    -5.433208    2.785574    -1.539663    -5.131334    -6.629244    19.460474    -3.146872    -56.128822    48.308708    -8.191442    9.158987    -13.730395    -25.815165    2.250633    -11.596889    4.244983    1.469606    17.420805    -0.369584    29.316034    45.132923    43.585323    -12.033005    -15.729306    26.211506    1.493015    -13.032109    -2.137488    3.219582    -22.247379    -1.350356    0.239733    2.991030    5.876486    -9.954082    2.853252    8.979394    0.000000    0.000000    0.000000    1.865105    8.579577    1.627177    2.347571    13.622407    7.242580    -0.826534    -15.320822    -16.318781    0.000000    0.000000    0.000000    
-18.051451    77.630699    -119.038757    -0.051849    -1.325567    0.099992    2.015492    -3.389014    2.047273    -1.108572    5.950739    2.045267    -2.036682    11.672330    -5.424873    2.711870    -1.493016    -5.137622    -6.599375    19.471750    -3.162257    -56.140793    48.285046    -8.205703    9.128633    -13.800763    -25.789183    2.376829    -11.674201    4.148982    1.519121    17.623781    -0.457536    29.152294    44.940079    43.861137    -12.001069    -15.744484    26.219240    1.536454    -13.053819    -2.065407    3.167553    -22.240957    -1.242505    0.430210    2.891125    5.989764    -9.508172    3.010018    8.728376    0.000000    0.000000    0.000000    1.866062    8.706099    1.599357    2.338826    13.743341    7.313958    -0.802585    -15.349388    -16.236641    0.000000    0.000000    0.000000    
-18.010933    77.605148    -118.745781    -0.121914    -1.309173    -0.050656    2.064403    -3.412688    2.084014    -1.195301    5.953504    2.084656    -2.045696    11.711980    -5.423003    2.759640    -1.538887    -5.127545    -6.587008    19.479073    -3.161893    -56.155228    48.219406    -8.207930    9.173203    -13.777349    -25.754093    2.282703    -11.645472    4.216094    1.548045    17.801943    -0.531826    29.014732    44.803974    44.110600    -12.013059    -15.730359    26.225281    1.580391    -13.036545    -2.041693    3.324284    -22.398523    -1.377789    0.204855    3.165339    5.914652    -9.488374    2.774174    9.144005    0.000000    0.000000    0.000000    1.867258    8.833807    1.640587    2.350145    13.850548    7.302430    -0.723060    -15.371395    -16.094574    0.000000    0.000000    0.000000    
-17.967010    77.579353    -118.436584    -0.176951    -1.265773    -0.222763    2.123618    -3.564062    2.113298    -1.318576    6.079038    2.117251    -2.017051    11.709791    -5.378031    2.740700    -1.536416    -5.084896    -6.563022    19.400148    -3.160372    -56.224709    48.227951    -8.126510    9.168450    -13.844253    -25.730232    2.182957    -11.722382    4.066058    1.608318    17.398609    -0.328376    29.379229    45.061523    43.596699    -12.036694    -15.741866    26.319094    1.526351    -13.032168    -2.080891    3.369190    -22.448687    -1.302995    0.209401    3.245500    5.907951    -9.325288    2.750958    9.195285    0.000000    0.000000    0.000000    1.813840    8.875093    1.748057    2.442302    14.109678    7.412378    -0.701340    -15.428120    -16.130270    0.000000    0.000000    0.000000    
